<svg version="1.1" id="Layer_1" xmlns="http://www.w3.org/2000/svg" xmlns:xlink="http://www.w3.org/1999/xlink" x="0px" y="0px"
	 width="100%" viewBox="0 0 144 144" enable-background="new 0 0 144 144" xml:space="preserve">
<path fill="#0B0B0B" opacity="1.000000" stroke="none" 
	d="
M1.000000,63.000000 
	C1.000000,42.366989 1.000000,21.733978 1.000000,1.050484 
	C48.888130,1.050484 96.776321,1.050484 145.000000,1.050484 
	C145.000000,21.686352 145.000000,42.374519 144.531342,63.531460 
	C131.274536,64.000160 118.486000,64.049416 105.698601,63.951107 
	C103.585342,63.934864 101.477051,63.272831 100.616104,63.124516 
	C102.205254,57.405766 103.549072,52.569847 104.997650,47.396423 
	C108.749817,41.632179 109.647842,35.897747 105.842064,30.337591 
	C102.454346,25.388197 97.470245,23.249926 92.528374,23.883633 
	C93.852509,26.223032 96.669228,28.898674 96.374130,31.170034 
	C95.807304,35.532967 91.535347,35.661503 87.993683,34.960495 
	C83.953568,34.160828 80.058105,32.657257 76.041290,31.706764 
	C69.635483,30.190966 63.225170,27.995331 56.738110,27.673758 
	C44.854816,27.084690 34.292908,38.687969 40.042477,52.024311 
	C38.262371,54.354240 35.510117,56.598892 35.620846,58.692097 
	C35.867104,63.347313 33.303841,63.005127 30.392136,63.002777 
	C20.594763,62.994862 10.797379,62.999908 1.000000,63.000000 
z"/>
<path fill="#141414" opacity="1.000000" stroke="none" 
	d="
M145.000000,117.000000 
	C145.000000,126.313080 145.000000,135.626160 144.999985,144.938202 
	C96.999962,144.937164 48.999954,144.937164 1.000000,144.937164 
	C1.000000,135.228653 1.000000,125.582985 1.468657,115.468658 
	C17.411167,114.999992 32.885269,115.042961 48.358597,114.952774 
	C50.630829,114.939529 52.899376,114.293808 55.524525,113.987976 
	C68.358223,120.201469 80.973274,120.226318 94.080353,115.034409 
	C97.677963,115.796204 100.896072,116.871323 104.128891,116.917526 
	C117.750206,117.112236 131.375900,116.999962 145.000000,117.000000 
z"/>
<path fill="#111111" opacity="1.000000" stroke="none" 
	d="
M145.000000,116.531342 
	C131.375900,116.999962 117.750206,117.112236 104.128891,116.917526 
	C100.896072,116.871323 97.677963,115.796204 94.274933,114.749100 
	C105.165527,107.897652 111.913528,92.533279 109.346909,83.455078 
	C102.418983,98.625267 89.938286,103.379829 74.588806,101.800697 
	C70.923241,101.423599 67.503433,98.657738 64.327164,96.919373 
	C68.017143,95.365288 71.274696,93.667046 74.704872,92.458878 
	C78.272964,91.202148 79.900513,89.387604 79.619873,85.256081 
	C79.170029,78.633293 79.496834,71.957741 79.495911,65.304489 
	C79.495361,61.405476 79.495811,57.506458 79.495811,52.930073 
	C72.814529,55.970634 67.046341,58.595661 62.953533,60.458244 
	C63.026417,73.342094 63.030014,85.157112 62.611671,96.876442 
	C49.917439,87.833664 50.856266,62.645931 63.145084,52.635361 
	C63.957832,51.973286 64.423103,50.884647 65.011703,49.990242 
	C64.973404,49.986061 64.967262,50.062866 65.269066,50.408096 
	C66.129242,50.522514 66.687614,50.291698 67.500992,50.026726 
	C68.148628,49.497833 68.541267,49.003094 69.241974,48.246925 
	C74.766838,49.432987 79.958755,50.978886 85.206398,52.304169 
	C92.512352,54.149273 99.234520,53.147995 104.892891,47.733929 
	C103.549072,52.569847 102.205254,57.405766 100.616104,63.124516 
	C101.477051,63.272831 103.585342,63.934864 105.698601,63.951107 
	C118.486000,64.049416 131.274536,64.000160 144.531342,64.000122 
	C145.000000,81.354225 145.000000,98.708458 145.000000,116.531342 
M86.983315,69.597801 
	C85.236229,70.898155 83.489151,72.198517 81.742065,73.498871 
	C82.335388,73.230217 82.928719,72.961563 83.522041,72.692909 
	C86.116776,76.458595 88.711510,80.224281 91.419472,84.154274 
	C95.965111,80.041740 99.362549,76.968002 102.984726,73.690941 
	C99.409637,70.520813 96.137177,67.619049 92.826736,64.683594 
	C90.812294,66.361046 89.166389,67.731606 86.983315,69.597801 
z"/>
<path fill="#111111" opacity="1.000000" stroke="none" 
	d="
M55.169628,113.940735 
	C52.899376,114.293808 50.630829,114.939529 48.358597,114.952774 
	C32.885269,115.042961 17.411167,114.999992 1.468657,115.000000 
	C1.000000,97.979103 1.000000,80.958214 1.000000,63.468658 
	C10.797379,62.999908 20.594763,62.994862 30.392136,63.002777 
	C33.303841,63.005127 35.867104,63.347313 35.620846,58.692097 
	C35.510117,56.598892 38.262371,54.354240 40.314293,52.202255 
	C42.954334,53.517208 44.995621,54.808212 47.135666,56.361618 
	C47.504093,57.114864 47.773766,57.605717 47.892296,58.391876 
	C29.143057,74.230537 35.653156,104.840279 55.169628,113.940735 
z"/>
<path fill="#EAEAEA" opacity="1.000000" stroke="none" 
	d="
M47.036911,56.099220 
	C44.995621,54.808212 42.954334,53.517208 40.641228,52.048256 
	C34.292908,38.687969 44.854816,27.084690 56.738110,27.673758 
	C63.225170,27.995331 69.635483,30.190966 76.041290,31.706764 
	C80.058105,32.657257 83.953568,34.160828 87.993683,34.960495 
	C91.535347,35.661503 95.807304,35.532967 96.374130,31.170034 
	C96.669228,28.898674 93.852509,26.223032 92.528374,23.883633 
	C97.470245,23.249926 102.454346,25.388197 105.842064,30.337591 
	C109.647842,35.897747 108.749817,41.632179 104.997650,47.396423 
	C99.234520,53.147995 92.512352,54.149273 85.206398,52.304169 
	C79.958755,50.978886 74.766838,49.432987 69.001724,47.946178 
	C65.016556,46.894142 61.639923,45.515259 58.131428,44.938450 
	C48.222706,43.309414 45.159874,46.514687 47.036911,56.099220 
z"/>
<path fill="#EAEAEA" opacity="1.000000" stroke="none" 
	d="
M55.524525,113.987976 
	C35.653156,104.840279 29.143057,74.230537 48.221996,58.288147 
	C54.151894,55.257542 59.600945,52.625984 65.049995,49.994423 
	C64.423103,50.884647 63.957832,51.973286 63.145084,52.635361 
	C50.856266,62.645931 49.917439,87.833664 62.871780,96.877258 
	C63.623878,96.982246 63.797234,96.986397 63.970589,96.990555 
	C67.503433,98.657738 70.923241,101.423599 74.588806,101.800697 
	C89.938286,103.379829 102.418983,98.625267 109.346909,83.455078 
	C111.913528,92.533279 105.165527,107.897652 93.902191,114.589157 
	C80.973274,120.226318 68.358223,120.201469 55.524525,113.987976 
z"/>
<path fill="#ECECEC" opacity="1.000000" stroke="none" 
	d="
M64.327164,96.919373 
	C63.797234,96.986397 63.623878,96.982246 63.190411,96.977264 
	C63.030014,85.157112 63.026417,73.342094 62.953533,60.458244 
	C67.046341,58.595661 72.814529,55.970634 79.495811,52.930073 
	C79.495811,57.506458 79.495361,61.405476 79.495911,65.304489 
	C79.496834,71.957741 79.170029,78.633293 79.619873,85.256081 
	C79.900513,89.387604 78.272964,91.202148 74.704872,92.458878 
	C71.274696,93.667046 68.017143,95.365288 64.327164,96.919373 
z"/>
<path fill="#E6E6E6" opacity="1.000000" stroke="none" 
	d="
M87.251900,69.349976 
	C89.166389,67.731606 90.812294,66.361046 92.826736,64.683594 
	C96.137177,67.619049 99.409637,70.520813 102.984726,73.690941 
	C99.362549,76.968002 95.965111,80.041740 91.419472,84.154274 
	C88.711510,80.224281 86.116776,76.458595 83.522041,72.692909 
	C82.928719,72.961563 82.335388,73.230217 81.742065,73.498871 
	C83.489151,72.198517 85.236229,70.898155 87.251900,69.349976 
z"/>
<path fill="#1B1B1B" opacity="1.000000" stroke="none" 
	d="
M65.011703,49.990242 
	C59.600945,52.625984 54.151894,55.257542 48.373146,57.992836 
	C47.773766,57.605717 47.504093,57.114864 47.135666,56.361618 
	C45.159874,46.514687 48.222706,43.309414 58.131428,44.938450 
	C61.639923,45.515259 65.016556,46.894142 68.693649,48.207603 
	C68.541267,49.003094 68.148628,49.497833 67.520737,49.631088 
	C66.512749,49.534027 65.740005,49.798447 64.967262,50.062866 
	C64.967262,50.062866 64.973404,49.986061 65.011703,49.990242 
z"/>
<path fill="#EAEAEA" opacity="1.000000" stroke="none" 
	d="
M65.269066,50.408096 
	C65.740005,49.798447 66.512749,49.534027 67.265739,49.665245 
	C66.687614,50.291698 66.129242,50.522514 65.269066,50.408096 
z"/>
</svg>